<svg width="600" height="128" viewBox="0 0 600 128" fill="none" xmlns="http://www.w3.org/2000/svg">
<path d="M70.5806 30.1855C66.0976 31.8792 65.8448 29.2922 65.5414 26.3598C63.9067 10.7452 50.9297 1.7793 36.1915 6.00947C22.0938 10.0542 16.8271 24.5143 25.8858 36.261C29.8968 41.4687 35.5342 45.5809 40.902 49.5583C48.0983 54.9007 56.112 59.173 63.1314 64.7262C79.1673 77.4167 81.8554 97.8344 69.9823 112.783C54.1739 132.678 18.5799 132.274 3.23499 112.025C-1.40808 105.899 -1.02045 98.5169 4.1872 93.8065C9.04936 89.4162 16.6249 89.4583 21.4534 93.8991C26.5852 98.6265 27.1413 105.747 22.3887 111.688C20.0798 114.57 20.9815 115.943 23.5937 117.603C33.672 124.016 48.764 121.471 56.4154 112.092C62.3309 104.837 64.8083 89.6269 53.9548 80.4924C47.5422 75.0909 40.4891 70.4479 33.6467 65.5688C27.6048 61.2628 21.1416 57.4877 15.3946 52.8278C-2.32658 38.4857 4.11979 8.76498 26.7874 2.09952C41.1632 -2.13065 55.1093 0.599578 68.8531 5.2595C69.5694 5.50387 70.5047 6.54877 70.5131 7.23133C70.6311 14.9164 70.589 22.6099 70.589 30.177L70.5806 30.1855Z" fill="white"/>
<path d="M414.657 125.904C412.955 123.148 411.413 120.671 409.703 117.907C408.641 118.53 407.79 119.213 406.812 119.584C399.919 122.196 393.186 125.727 386.049 127.092C373.392 129.502 361.763 122.786 355.84 111.149C345.037 89.9051 353.244 62.9315 373.527 53.0217C382.83 48.4798 392.538 48.8253 402.363 50.5275C404.006 50.814 405.641 51.1763 407.882 51.6313C407.882 48.6905 407.882 46.0614 407.882 43.4322C407.882 34.0197 407.916 24.6072 407.866 15.1946C407.832 9.5488 406.753 8.22582 401.074 6.54049V2.25977H422.444C422.444 4.15576 422.444 5.80738 422.444 7.45899C422.444 39.7751 422.444 72.0828 422.444 104.399C422.444 109.371 422.975 113.997 428.494 116.196C430.213 116.879 431.747 118.025 433.365 118.96C431.578 119.997 429.901 121.362 427.98 122.011C423.75 123.46 419.393 124.547 414.674 125.904H414.657ZM407.731 88.3293C407.731 82.7256 407.731 77.1135 407.731 71.5098C407.731 66.4117 405.169 62.7208 401.209 59.9147C391.627 53.1229 376.653 56.1564 370.418 66.0746C363.171 77.5853 364.131 99.6378 372.339 110.5C379.746 120.291 394.653 121.918 403.593 113.491C405.708 111.494 407.225 108.073 407.554 105.14C408.177 99.6041 407.731 93.9499 407.731 88.3377V88.3293Z" fill="white"/>
<path d="M119.901 125.6H86.8016C86.5236 125.288 86.2371 124.976 85.959 124.665C86.9112 123.653 87.6864 122.128 88.8577 121.707C95.8434 119.179 95.8771 119.263 95.8771 112.033C95.8771 79.8772 95.8771 47.7296 95.8771 15.5736C95.8771 9.0514 95.1272 8.03178 89.1358 6.37173V2.20898H110.076V60.2431C111.854 58.8106 112.773 58.1028 113.666 57.3612C126.601 46.5077 143.091 46.6931 153.507 57.7573C159.22 63.8244 160.417 71.3663 160.492 79.2115C160.602 90.3009 160.518 101.399 160.518 112.488C160.518 119.668 160.56 119.592 167.453 121.783C168.633 122.154 169.458 123.637 170.444 124.597C170.166 124.926 169.897 125.263 169.618 125.592H137.319C137.041 125.263 136.772 124.943 136.493 124.614C137.471 123.611 138.271 122.12 139.451 121.698C146.412 119.246 146.437 119.331 146.437 112.008C146.437 101.34 146.546 90.6632 146.378 79.9951C146.285 73.8943 145.35 67.9535 140.631 63.361C135.01 57.8921 128.564 57.3022 121.578 60.0746C114.18 63.0155 110.615 68.1979 110.607 75.7987C110.598 88.2954 110.607 100.792 110.607 113.289C110.607 119.398 111.087 120.013 117.053 121.614C118.946 122.12 119.893 123.448 119.893 125.6H119.901Z" fill="white"/>
<path d="M517.444 55.4066V51.1933H536.8C537.465 54.0668 538.131 56.9908 538.738 59.6115C543.625 56.7886 548.057 53.4769 553.012 51.5051C569.225 45.0334 586.609 55.1959 588.573 72.5885C589.668 82.3128 589.247 92.2056 589.474 102.023C589.55 105.25 589.483 108.486 589.483 111.713C589.483 119.331 589.508 119.255 596.873 121.867C597.918 122.238 598.533 123.797 599.999 125.609H565.627C564.776 123.3 565.231 122.23 567.86 121.53C574.871 119.66 575.166 119.112 575.107 111.975C575.023 101.45 574.879 90.9164 574.736 80.3915C574.711 78.7062 574.66 77.0124 574.424 75.3524C573.363 67.8274 569.823 61.8951 562.273 59.6873C554.942 57.5554 548.1 59.6705 543.128 65.2994C540.836 67.8948 539.243 71.9649 539.108 75.4367C538.637 87.9249 538.923 100.438 538.923 112.935C538.923 119.306 539.319 120.014 545.555 121.556C547.99 122.162 549.086 122.938 547.948 125.609H515.059C514.225 123.291 514.663 122.23 517.309 121.539C524.235 119.735 524.556 119.087 524.556 111.983C524.556 96.5285 524.589 81.0741 524.539 65.6281C524.514 58.8446 523.46 57.4205 517.452 55.4066H517.444Z" fill="white"/>
<path d="M508.529 119.903C506.397 125.187 501.366 125.212 497.608 126.417C492.914 127.925 488.347 124.091 484.665 116.524C483.434 117.443 482.28 118.319 481.109 119.17C474.755 123.763 467.938 127.378 459.899 127.378C452.989 127.378 446.627 125.456 443.408 118.631C440.071 111.561 440.779 104.044 445.868 98.5165C450.394 93.6122 456.478 89.8877 462.41 86.6181C468.132 83.4666 474.586 81.6801 480.595 79.0005C481.909 78.4106 483.578 76.5989 483.561 75.377C483.468 70.2536 483.249 65.0376 482.204 60.049C481.269 55.5829 477.392 54.1672 473.086 54.2178C468.241 54.2768 463.901 55.6419 461.087 59.872C460.649 60.5293 461.213 61.945 461.491 62.9562C462.646 67.1021 461.483 70.8688 458.188 72.9333C454.691 75.1158 451.228 74.8377 448.034 72.2929C444.849 69.7649 443.93 65.5432 445.885 61.6585C449.534 54.42 456.427 51.9089 463.632 50.2151C471.317 48.4118 479.002 49.3472 486.502 51.3949C493.976 53.4341 496.967 57.6811 497.052 66.0403C497.17 77.8292 497.085 89.618 497.085 101.415C497.085 102.823 497.069 104.221 497.085 105.629C497.212 114.957 498.771 117.021 508.537 119.895L508.529 119.903ZM483.384 85.1772C475.589 89.222 468.511 92.4746 461.904 96.5194C459.376 98.0699 457.345 101.154 456.132 103.977C453.764 109.496 457.084 115.665 462.823 116.608C470.028 117.788 476.331 115.21 481.816 110.626C482.6 109.977 483.3 108.721 483.316 107.735C483.443 100.648 483.384 93.5533 483.384 85.1688V85.1772Z" fill="white"/>
<path d="M237.58 78.8411H190.913C189.371 90.4698 190.686 100.927 198.623 109.531C207.556 119.221 224.544 118.033 233.316 107.374C234.024 106.514 234.639 105.579 235.608 104.256C237.133 104.938 238.717 105.638 240.259 106.329C236.965 117.983 224.847 127.1 212.485 127.446C191.941 128.027 177.422 114.216 175.99 92.6523C175.079 78.9506 178.248 66.5803 188.992 57.3026C198.455 49.1288 209.502 47.2412 221.291 51.3366C232.094 55.0864 238.186 65.3922 237.58 78.8326V78.8411ZM192.464 72.302H223.625C224.78 64.954 218.94 57.0161 211.761 55.9038C202.483 54.4628 193.736 61.7771 192.464 72.302Z" fill="white"/>
<path d="M249.604 55.4809V51.2676H267.688C268.463 55.1101 269.272 59.1128 270.064 63.0227C274.412 59.197 278.12 55.0006 282.687 52.2282C286.024 50.2058 290.49 49.3294 294.467 49.2705C298.967 49.203 301.335 52.8181 301.933 57.0567C302.498 61.0509 300.754 64.1772 297.105 66.0394C293.473 67.8933 289.386 67.236 286.445 63.8485C284.642 61.7671 282.99 61.7924 280.934 62.8963C274.758 66.1995 271.168 71.1375 271.193 78.376C271.227 89.7435 271.193 101.119 271.193 112.487C271.193 119.279 271.758 119.902 278.263 121.756C279.51 122.11 280.496 123.391 281.6 124.251C281.364 124.655 281.128 125.068 280.892 125.472H245.871C247.506 123.703 248.256 122.186 249.393 121.79C256.792 119.195 256.826 119.27 256.826 111.543C256.826 95.9624 256.826 80.3816 256.826 64.7923C256.826 58.5819 255.857 57.3179 249.596 55.4809H249.604Z" fill="white"/>
<path d="M344.472 125.556H310.984C310.723 125.236 310.454 124.907 310.192 124.587C311.204 123.61 312.046 122.135 313.243 121.739C320.38 119.363 320.591 119.194 320.591 111.72C320.591 96.4338 320.625 81.1395 320.566 65.8536C320.54 58.8089 319.63 57.5786 313.336 55.2781V51.3008H334.958V55.5394C334.958 74.474 334.958 93.4086 334.958 112.343C334.958 119.733 335.051 119.75 342.129 121.823C343.326 122.177 344.219 123.567 345.256 124.486C344.994 124.848 344.733 125.202 344.472 125.565V125.556Z" fill="white"/>
<path d="M326.253 19.1549C330.997 19.0959 334.84 22.8205 334.958 27.5731C335.076 32.4437 331.107 36.4632 326.245 36.4042C321.543 36.3452 317.759 32.5195 317.717 27.7669C317.675 23.1154 321.551 19.2055 326.262 19.1465L326.253 19.1549Z" fill="white"/>
</svg>
