<svg width="600" height="143" viewBox="0 0 600 143" fill="none" xmlns="http://www.w3.org/2000/svg">
<g clip-path="url(#clip0_10_2)">
<path d="M130.828 128.867H138.476V126.733H130.828V120.172H141.074V117.981H128.503V138.789H141.652V136.632H130.828V128.879V128.867ZM167.577 123.679C167.577 120.001 164.991 117.969 160.293 117.969H153.27V138.777H155.562V129.605H160.35L165.342 138.777H167.963L162.767 129.333C165.944 128.663 167.555 126.756 167.555 123.679H167.577ZM160.157 127.505H155.562V120.138H160.123C163.709 120.138 165.24 121.227 165.24 123.77C165.24 126.313 163.72 127.516 160.146 127.516H160.157V127.505ZM186.695 127.142C182.406 125.768 181.158 125.042 181.158 122.873C181.158 120.978 182.849 119.706 185.368 119.706C187.886 119.706 189.634 120.841 190.575 123.293L190.643 123.475L192.629 122.544L192.572 122.385C191.789 120.183 189.917 117.572 185.39 117.572C181.669 117.572 178.855 119.91 178.855 123.01C178.855 126.404 181.034 127.687 185.606 129.117C190.076 130.547 190.836 131.626 190.836 133.533C190.836 135.701 188.976 137.052 185.969 137.052C183.133 137.052 181.17 135.61 180.296 132.874L180.239 132.693L178.163 133.453L178.209 133.612C179.218 137.086 182.089 139.152 185.89 139.152C190.178 139.152 193.162 136.78 193.162 133.397C193.162 130.014 190.791 128.447 186.684 127.142H186.695ZM39.767 131.399C39.767 135.009 37.895 136.995 34.4799 136.995C31.0648 136.995 29.1701 134.941 29.1701 131.353V117.969H26.8442V131.682C26.8442 136.28 29.76 139.129 34.4572 139.129C39.1544 139.129 42.0929 136.189 42.0929 131.626V117.969H39.767V131.41V131.399ZM108.75 135.497L102.748 117.947H100.342L107.604 138.709L107.649 138.834H109.759L117.066 117.947H114.774L108.75 135.497ZM205.2 138.755H207.526V117.947H205.2V138.755ZM69.1413 134.464L58.1586 118.026L58.1018 117.947H55.7192V138.755H57.9317V121.715L69.2775 138.675L69.3342 138.755H71.3537V117.947H69.1413V134.464ZM86.2054 138.755H88.5313V117.947H86.2054V138.755ZM452.437 117.981L452.391 117.867H449.77L442.1 138.505L442.01 138.755H444.313L446.627 132.466H455.42L457.69 138.63L457.735 138.755H460.174L452.459 117.981H452.437ZM447.388 130.354L451.007 120.512L454.626 130.354H447.388ZM217.862 120.126H224.454V138.743H226.78V120.126H233.383V117.935H217.862V120.126ZM395.492 117.856H392.871L385.201 138.494L385.111 138.743H387.414L389.728 132.454H398.521L400.79 138.619L400.836 138.743H403.275L395.56 117.969L395.515 117.856H395.492ZM390.488 130.354L394.108 120.512L397.727 130.354H390.488ZM370.304 134.452L359.322 118.015L359.265 117.935H356.882V138.743H359.095V121.704L370.44 138.664L370.497 138.743H372.517V117.935H370.304V134.452ZM421.372 117.935H416.028V138.743H421.372C428.134 138.743 431.708 135.134 431.708 128.311C431.708 121.488 428.134 117.935 421.372 117.935ZM421.655 136.666H418.308V120.069H421.599C426.795 120.069 429.439 122.839 429.439 128.311C429.439 133.783 426.897 136.666 421.655 136.666ZM336.403 117.856H333.782L326.112 138.494L326.022 138.743H328.325L330.639 132.454H339.432L341.702 138.619L341.747 138.743H344.186L336.471 117.969L336.426 117.856H336.403ZM331.4 130.354L335.019 120.512L338.638 130.354H331.4ZM312.826 131.944C311.953 135.349 310.103 136.995 307.176 136.995C303.239 136.995 300.789 133.624 300.789 128.197C300.789 122.771 303.273 119.706 307.119 119.706C309.979 119.706 311.533 121.091 312.497 124.485L312.543 124.656L314.767 124.099L314.721 123.918C313.643 119.683 311.091 117.538 307.142 117.538C301.946 117.538 298.451 121.84 298.451 128.243C298.451 134.645 301.866 139.118 307.142 139.118C311.181 139.118 313.984 136.745 315.05 132.432L315.096 132.25L312.86 131.762L312.815 131.932H312.826V131.944ZM249.982 127.528L244.4 118.049L244.343 117.958H241.79L248.779 129.696V138.755H251.105V129.696L258.117 117.958H255.598L249.993 127.528H249.982ZM277.609 126.188C276.304 126.188 275.363 127.142 275.363 128.459C275.363 129.775 276.304 130.706 277.609 130.706C278.914 130.706 279.878 129.764 279.878 128.459C279.878 127.153 278.925 126.188 277.609 126.188ZM225.441 50.0275H222.48C220.075 41.6384 214.492 34.5888 204.508 34.5888C198.211 34.5888 194.717 38.2101 194.717 43.1142C194.717 58.5188 228.902 52.2298 228.902 76.0577C228.902 87.9773 219.405 94.9815 206.834 94.9815C199.005 94.9815 194.603 92.3137 191.12 92.3137C189.395 92.3137 187.682 92.87 186.377 94.4025L182.338 72.3002H185.345C187.977 83.8224 195.068 91.6667 207.129 91.6667C213.585 91.6667 218.792 88.2724 218.792 81.1207C218.792 65.33 185.141 70.0184 185.141 48.0523C185.141 37.3246 193.571 31.4102 204.44 31.4102C210.794 31.4102 213.346 33.1358 217.51 33.1358C219.371 33.1358 220.903 32.4319 222.037 31.1491L225.452 50.0389L225.441 50.0275ZM403.241 90.4861V37.2338H393.382V34.1461H406.429C411.909 34.1461 414.156 32.5341 415.812 31.1719V44.7488H416.062C419.885 36.3597 427.283 31.4216 437.392 31.4216C449.475 31.4216 455.511 36.7343 455.511 49.0626V90.5088H465.246V93.5965H433.194V90.5088H442.929V48.688C442.929 39.4021 439.128 35.8602 432.865 35.8602C421.712 35.8602 415.801 46.9625 415.801 58.4394V90.5088H425.547V93.5965H392.633V90.5088H403.241V90.4861ZM275.17 84.2765L274.183 86.2404C271.618 91.0877 266.717 94.8225 258.639 94.8225C245.818 94.8225 244.286 87.2962 244.286 79.4065V37.2452H234.291V34.8158C246.238 33.6693 252.83 26.9376 254.52 13.7806H257.119V34.1574H272.288V37.2452H257.119V79.9287C257.119 87.2054 259.059 90.1569 263.767 90.1569C268.476 90.1569 270.892 86.6264 272.503 83.0392L275.17 84.3106V84.2765ZM382.626 47.1214C378.961 47.1214 375.989 44.3515 375.989 40.4805C375.989 38.3917 376.953 36.53 378.473 35.304C378.11 35.1337 377.668 35.0542 377.01 35.0542C368.194 35.0542 361.341 50.2319 361.341 64.2175V90.4861H371.575V93.5738H338.162V90.4861H348.759V37.2338H338.162V34.1461H352.003C357.325 34.1461 359.344 32.5681 361.341 30.9335V47.5869H361.5C364.087 40.4351 369.068 31.4329 379.097 31.4329C385.803 31.4329 389.422 35.1337 389.422 40.0151C389.422 43.818 386.642 47.1441 382.649 47.1441H382.626V47.1214ZM171.14 76.5345C167.668 84.7193 161.859 91.2353 151.217 91.2353C135.31 91.2353 132.973 79.1114 132.973 60.5168V59.5292H173.897C173.897 43.0006 164.741 31.6486 147.643 31.6486C128.99 31.6486 118.915 46.0316 118.915 63.3548C118.915 80.6779 128.366 95.0609 147.518 95.0609C159.374 95.0609 168.996 90.5769 174.022 77.4767L171.129 76.5345H171.14ZM133.086 52.9336C133.756 43.7385 137.114 34.8386 146.781 34.8386C157.083 34.8386 159.34 42.8871 159.579 51.4125C159.601 52.2071 159.613 54.9657 159.613 55.7149H132.984C132.984 54.8862 133.03 53.7964 133.098 52.9336H133.086ZM330.526 76.5345C327.054 84.7193 321.245 91.2353 310.603 91.2353C294.696 91.2353 292.359 79.1114 292.359 60.5168V59.5292H333.283C333.283 43.0006 324.127 31.6486 307.029 31.6486C288.376 31.6486 278.301 46.0316 278.301 63.3548C278.301 80.6779 287.752 95.0609 306.904 95.0609C318.76 95.0609 328.382 90.5769 333.408 77.4767L330.515 76.5345H330.526ZM292.472 52.9336C293.141 43.7385 296.5 34.8386 306.166 34.8386C316.468 34.8386 318.726 42.8871 318.953 51.4125C318.976 52.2071 318.987 54.9657 318.987 55.7149H292.359C292.359 54.8862 292.404 53.7964 292.472 52.9336ZM65.488 30.8994C60.076 46.5311 43.1935 94.9247 43.1935 94.9247H40.6747L13.0931 19.8085L8.56608 7.84349H0V4.8125H35.3989V7.83213H24.3141L27.7178 17.9127L46.9943 71.0968H47.2439L63.2415 24.8488L56.9446 7.84349H46.2341V4.82385H84.7758V7.84349H72.3068L75.7105 17.6743L95.2367 71.1082H95.4863L112.868 17.9241L115.761 7.84349H104.676V4.82385H129.739V7.84349H120.799L116.896 18.9344L91.9577 94.9247H89.3028L65.4993 30.8994H65.488Z" fill="white"/>
<path d="M600 58.9737V7.74207C586.748 3.04234 565.872 0 542.364 0C518.855 0 498.785 3.03099 485.51 7.74207V58.9737C485.51 66.7498 485.385 81.2236 492.363 97.491C501.031 117.698 517.573 132.773 541.501 142.297L542.738 142.808L543.975 142.309C567.937 132.773 584.479 117.698 593.136 97.491C600.114 81.2236 600 66.3525 600 58.9737Z" fill="white"/>
<path d="M542.738 85.5605L577.536 113.952C568.936 123.987 557.295 131.99 542.738 137.859C528.182 132.002 516.541 123.987 507.941 113.952L542.738 85.5605ZM595.394 42.6045V11.0346C582.165 6.93654 562.684 4.60938 542.353 4.60938C522.021 4.60938 503.391 6.94789 490.094 11.0687V42.6159L542.738 85.5605L595.406 42.6045H595.394ZM544.225 68.9866H541.036L540.934 68.7595C540.934 68.7595 540.129 67.2497 536.668 67.2497H526.253V50.4147H527.013V66.4891H536.657C539.868 66.4891 541.104 67.7152 541.479 68.226H543.998C544.361 67.7038 545.541 66.4891 548.74 66.4891H558.407V50.4715H559.178V67.2497H548.74C545.291 67.2497 544.565 68.7368 544.565 68.7595L544.463 68.9866H544.225ZM542.307 66.1259V66.9432C540.855 64.2074 534.24 64.6501 528.601 65.2177V49.6087C535.658 49.2455 541.672 48.2578 542.307 51.3342V65.3426C540.515 63.1971 535.125 63.4241 529.486 63.969V64.4117C535.069 63.8782 540.946 63.6966 542.307 66.1259ZM556.852 49.6087V65.2177C551.225 64.6501 544.61 64.2074 543.158 66.9432V66.1259C544.474 63.6625 550.397 63.8782 556.001 64.4117V63.969C550.34 63.4241 544.928 63.1744 543.158 65.3426V51.3342C543.793 48.2578 549.795 49.2455 556.852 49.6087ZM588.053 42.5932H497.48L491.694 36.5085L503.244 40.3568C502.29 37.4734 499.658 36.4858 497.945 34.0224C496.935 32.558 496.595 31.1163 496.708 29.6178C497.015 30.1514 497.571 30.8893 498.444 31.4909C499.284 32.0699 500.396 32.5126 501.927 32.8532C504.65 33.4435 506.069 34.3062 507.26 35.4187L501.349 24.8273L511.537 31.4001C511.118 28.3691 509.03 26.8025 507.986 23.9986C507.373 22.3299 507.385 20.8314 507.861 19.4124C508.031 20.0027 508.383 20.8541 509.087 21.6601C509.756 22.4207 510.732 23.1358 512.127 23.8397C514.714 25.1338 515.86 26.3598 516.756 27.7902L513.614 15.916L521.805 24.7705C522.134 21.7963 520.523 19.7416 520.217 16.7901C520.035 15.0192 520.41 13.5548 521.227 12.306C521.238 12.919 521.374 13.8386 521.851 14.7808C522.305 15.6889 523.076 16.6198 524.256 17.6528C526.514 19.6167 527.297 21.1265 527.807 22.8066L527.716 10.3535L533.423 20.9109C534.535 18.2318 533.367 15.7684 533.798 12.8509C534.059 11.0914 534.83 9.75183 535.931 8.7415C535.795 9.34316 535.693 10.2627 535.931 11.2957C536.146 12.2833 536.657 13.3845 537.542 14.6673C539.278 17.1874 539.641 18.8561 539.709 20.6498H539.732L542.772 8.44635L545.688 20.1503C547.447 17.7436 546.993 15.0078 548.15 12.2606C548.842 10.6259 549.909 9.64966 551.236 8.94584C550.953 9.49074 550.624 10.3535 550.59 11.4206C550.556 12.4309 550.771 13.6229 551.304 15.0873C552.325 17.8912 552.269 19.5713 551.906 21.2741L557.817 10.3421L557.737 22.3639C560.029 20.5589 560.188 17.6982 561.981 15.3597C563.059 13.9407 564.363 13.271 565.816 12.919C565.407 13.3731 564.874 14.1337 564.579 15.144C564.284 16.1203 564.205 17.3236 564.363 18.8788C564.67 21.9212 564.182 23.5559 563.376 25.1452L571.908 15.9273L568.845 27.5064C571.409 26.2804 572.339 23.817 574.643 22.0006C576.038 20.8995 577.456 20.3546 578.954 20.3773C578.444 20.7179 577.74 21.3195 577.195 22.2277C576.674 23.1018 576.288 24.2483 576.061 25.7922C575.607 28.8005 574.733 30.2649 573.565 31.6044L573.61 31.6385L584.173 24.8273L578.341 35.2598C581.189 34.8511 582.562 32.5807 585.217 31.4001C586.839 30.6736 588.382 30.4919 589.835 30.8893C589.245 31.0936 588.428 31.5023 587.668 32.2515C586.942 32.9667 586.295 33.977 585.682 35.4187C584.502 38.2 583.3 39.4033 581.847 40.4136L581.915 40.4931L593.84 36.5199L588.053 42.6045V42.5932ZM530.53 59.6552H530.837C531.778 59.6552 531.858 59.5644 531.858 58.9287V56.2269C531.858 55.4891 531.744 55.4323 531.12 55.4323H530.542V55.1144C531.188 55.1144 531.858 55.1485 532.459 55.1485C533.117 55.1485 533.764 55.1258 534.376 55.1144V55.4323H533.798C533.174 55.4323 533.06 55.4891 533.06 56.2269V58.9287C533.06 59.5531 533.128 59.6552 534.07 59.6552H534.376V59.9731C533.786 59.9731 533.185 59.939 532.459 59.939C531.914 59.939 531.211 59.9617 530.542 59.9731V59.6552H530.53ZM537.236 56.6697C536.509 56.2383 535.999 55.6026 535.999 54.7852C535.999 54.0814 536.509 52.8327 538.166 52.8327C539.482 52.8327 540.049 53.6614 540.049 54.3993C540.049 55.1371 539.777 55.6253 538.676 56.1361C539.743 56.681 540.22 57.26 540.22 58.1C540.22 59.2579 539.312 60.1093 537.916 60.1093C536.668 60.1093 535.874 59.2466 535.874 58.3498C535.874 57.3621 536.646 56.874 537.236 56.6697ZM539.096 58.6109C539.096 57.9978 538.813 57.6005 537.542 56.8286C536.975 57.1237 536.68 57.7027 536.68 58.2476C536.68 59.2466 537.383 59.7234 537.939 59.7234C538.733 59.7234 539.096 59.1444 539.096 58.6109ZM538.427 55.9885C538.915 55.6026 539.244 55.2053 539.244 54.5128C539.244 53.7181 538.711 53.2073 538.098 53.2073C537.394 53.2073 537.02 53.7749 537.02 54.3652C537.02 54.9896 537.451 55.4209 538.427 55.9885ZM545.053 55.1144H549.432L549.512 55.2053L545.949 62.2094L545.416 62.0619L548.275 56.2156H545.348L545.098 56.874H544.792L545.064 55.1144H545.053ZM551.838 56.6697C551.1 56.2383 550.601 55.6026 550.601 54.7852C550.601 54.0814 551.111 52.8327 552.768 52.8327C554.084 52.8327 554.651 53.6614 554.651 54.3993C554.651 55.1371 554.379 55.6253 553.279 56.1361C554.345 56.681 554.833 57.26 554.833 58.1C554.833 59.2579 553.925 60.1093 552.53 60.1093C551.282 60.1093 550.487 59.2466 550.487 58.3498C550.487 57.3621 551.259 56.874 551.86 56.6697H551.838ZM553.698 58.6109C553.698 57.9978 553.415 57.6005 552.144 56.8286C551.577 57.1237 551.282 57.7027 551.282 58.2476C551.282 59.2466 551.985 59.7234 552.541 59.7234C553.335 59.7234 553.698 59.1444 553.698 58.6109ZM553.029 55.9885C553.517 55.6026 553.846 55.2053 553.846 54.5128C553.846 53.7181 553.313 53.2073 552.7 53.2073C551.996 53.2073 551.622 53.7749 551.622 54.3652C551.622 54.9896 552.053 55.4209 553.029 55.9885ZM559.757 85.1973C559.768 77.7049 565.804 71.643 573.247 71.6543C580.679 71.6657 586.692 77.7503 586.681 85.2427C586.681 92.735 580.633 98.7969 573.202 98.7856C565.759 98.7856 559.746 92.5307 559.757 85.1973ZM579.408 75.9567C579.487 76.0589 579.544 76.1838 579.544 76.32C579.544 76.6605 579.294 76.933 578.954 76.9443C578.625 76.9443 578.341 76.6946 578.341 76.354C578.341 76.0475 578.557 75.7864 578.852 75.741L578.16 74.6739L576.98 75.1848C577.105 75.287 577.184 75.4459 577.184 75.6275C577.184 75.9681 576.923 76.2405 576.594 76.2519C576.254 76.2519 575.981 75.9908 575.97 75.6616C575.97 75.4005 576.118 75.1848 576.345 75.0826C575.981 74.708 575.221 74.1404 574.495 73.8906C575.062 74.9123 575.369 76.1838 575.346 77.2395C576.106 77.1941 578.194 77.8298 578.977 78.4315C579.623 77.4779 580.588 76.5697 581.654 76.1951C581.144 76.0135 580.134 75.8546 579.397 75.9567H579.408ZM575.63 78.6585C575.539 78.6585 575.448 78.6358 575.357 78.6244C575.278 78.6017 575.244 78.5677 575.221 78.545C575.199 78.5109 575.119 78.4201 574.915 78.4088C574.563 78.3861 574.382 78.6585 574.359 78.8288C574.336 78.9537 574.37 79.0785 574.45 79.1693C574.518 79.2488 574.609 79.2942 574.711 79.3056C574.779 79.3056 574.858 79.3056 574.938 79.2715H574.949C575.096 79.1807 575.176 79.0558 575.221 78.9309C575.244 78.8742 575.414 78.8061 575.607 78.8061C575.641 78.8061 575.675 78.7834 575.686 78.7493C575.686 78.7153 575.675 78.6812 575.641 78.6699H575.63V78.6585ZM571.988 78.8401C571.92 78.965 571.92 79.1012 571.942 79.2034C571.942 79.2034 571.999 79.2715 571.999 79.2829C571.954 79.4872 571.965 79.7483 572.044 80.1116C572.09 80.3159 572.283 80.3954 572.646 80.4067C572.646 80.4975 572.657 80.5883 572.68 80.6678V80.7019C572.476 80.7586 572.271 80.7927 572.079 80.7813C571.511 80.7473 571.171 80.4294 571.239 79.8732C571.25 79.771 571.284 79.6802 571.341 79.5894C571.364 79.544 571.341 79.4985 571.296 79.4872C571.091 79.4191 570.513 79.8959 570.433 80.5429C570.354 81.1786 570.706 81.5192 571.216 81.5533C571.5 81.576 571.886 81.5306 572.294 81.3716C572.986 81.0878 573.78 81.0084 574.257 81.4851C573.894 81.417 572.952 81.4851 572.68 81.5419C572.271 81.6214 572.079 82.4614 572.532 82.4841C572.873 82.5068 574.143 82.4274 574.223 82.4501C574.098 83.0063 573.27 83.6988 572.476 83.8691C571.988 83.6647 570.57 83.7101 569.923 83.9031C569.117 82.9836 568.527 81.2922 568.459 80.7246C568.425 80.4635 568.425 80.1683 568.55 79.9299C568.811 79.4645 569.321 79.5099 569.571 79.1126C569.707 78.8969 569.65 78.6358 569.685 78.4088C569.696 78.3066 569.911 77.9547 569.65 77.8298C569.537 77.9774 569.356 78.0795 569.117 78.0114C568.958 77.9547 568.8 77.9093 568.629 77.9774C568.346 78.1023 568.3 78.4428 568.073 78.6812C567.96 78.8061 567.812 78.7493 567.847 78.5563C567.903 78.2385 568.062 77.932 568.005 77.6028C567.96 77.2736 567.71 77.0125 567.37 76.8308C567.223 76.7514 567.064 76.6038 566.893 76.5697C566.735 76.5243 566.599 76.5924 566.599 76.6605C566.678 76.7173 566.735 76.8081 566.746 76.933C566.746 77.2281 566.428 77.3871 566.428 77.6709C566.428 78.1022 566.723 78.4882 566.757 78.7153C566.78 78.8855 566.633 78.8855 566.53 78.8288C566.303 78.7039 565.952 78.5223 565.634 78.5109C565.373 78.5109 565.192 78.7153 564.965 78.8174C564.863 78.8515 564.443 78.8515 564.534 79.0558C564.76 79.1012 564.942 79.2488 565.01 79.4645C565.078 79.6234 565.112 79.7596 565.26 79.8732C565.521 80.0548 566.054 80.0094 566.315 80.0548C566.485 80.0888 566.678 80.191 566.735 80.5429C566.769 80.7813 566.678 81.0538 566.564 81.2581C566.36 81.6214 566.258 81.996 566.349 82.3365C566.44 82.2003 566.542 82.1436 566.655 82.1436C566.882 82.1436 566.95 82.4047 566.78 82.7679C566.633 83.0858 566.542 83.449 566.689 83.8691C566.757 83.7328 566.871 83.642 567.007 83.642C567.211 83.642 567.325 83.8577 567.177 84.255C567.041 84.6183 567.007 84.9702 567.154 85.3108C567.211 85.1518 567.336 85.061 567.483 85.061C567.699 85.061 567.79 85.2767 567.869 85.4697C568.119 86.0941 568.527 86.4119 569.537 86.4119C569.185 87.0817 566.269 86.6503 565.078 86.5141C564.817 86.48 564.67 86.4119 564.602 86.2076C564.409 85.7422 564.851 85.3562 564.602 84.868C564.477 84.6297 564.284 84.5615 564.068 84.4253C563.978 84.3686 563.705 84.0166 563.535 84.1756C563.615 84.3572 563.592 84.5161 563.388 84.6978C563.251 84.8113 563.127 84.9135 563.093 85.1178C563.047 85.447 563.32 85.7649 563.41 86.0487C563.49 86.253 563.354 86.3438 563.183 86.2076C562.9 85.9919 562.491 85.4924 562.06 85.4924C561.765 85.4924 561.686 85.6627 561.459 85.7762C561.357 85.8216 560.903 85.867 560.948 86.0941C561.153 86.1281 561.323 86.2416 561.368 86.5141C561.402 86.6957 561.447 86.866 561.606 86.9909C562.003 87.2974 562.616 87.1611 562.979 87.2293C563.127 87.2633 563.149 87.3882 563.013 87.4677C562.707 87.6493 562.264 87.7742 562.117 88.0807C561.992 88.3304 562.072 88.6142 562.06 88.8639C562.06 88.9775 561.913 89.318 562.151 89.3861C562.276 89.2272 562.435 89.1023 562.718 89.1364C562.9 89.1591 563.047 89.2386 563.229 89.1591C563.524 89.0002 563.558 88.7277 563.717 88.4666C563.796 88.3304 563.932 88.1942 564.148 88.1942C564.284 88.1942 564.409 88.2282 564.511 88.3191C564.749 88.5234 564.715 89.0229 565.43 89.125C565.396 89.0456 565.373 88.9548 565.373 88.8753C565.373 88.7277 565.464 88.6142 565.6 88.6142C565.759 88.6142 565.884 88.6937 566.031 88.9434C566.224 89.2726 566.428 89.3634 566.746 89.3975C566.701 89.318 566.678 89.2159 566.678 89.125C566.678 88.9775 566.769 88.8753 566.905 88.8753C566.984 88.8753 567.143 88.9094 567.268 89.125C567.472 89.477 567.631 89.6472 567.983 89.6813C567.881 89.477 567.96 89.2045 568.232 89.2045C568.505 89.2045 569.197 89.4429 569.707 89.6586C569.685 90.9754 570.547 92.3831 571.818 93.2458C571.772 92.9961 571.897 92.8599 572.09 92.8599C572.6 92.8599 572.861 94.0745 574.019 94.6194C573.962 94.3924 574.087 94.2448 574.246 94.2448C574.382 94.2448 574.563 94.3356 574.665 94.381C575.698 94.9373 576.798 95.6411 577.32 96.1065C578.398 95.7773 580.145 94.7329 581.291 93.5523C580.588 93.3366 578.636 91.8722 577.967 91.1684C576.742 89.9083 576.413 88.5915 576.413 87.6152C576.413 87.286 576.458 86.9795 576.537 86.7411C576.9 86.9568 577.4 86.9228 577.706 86.639C577.15 86.2076 577.229 85.3448 577.422 85.027C577.729 85.2767 578.296 85.2086 578.58 84.9475C578.149 84.6864 577.922 83.9939 578.149 83.4036C578.387 83.6534 578.943 83.6647 579.272 83.3923C578.829 83.0177 578.602 82.416 578.716 81.7235C578.92 82.0073 579.317 82.0414 579.612 81.9279C579.431 81.5533 579.419 80.9289 579.363 80.5089C579.294 79.9413 579.136 79.2942 578.943 78.9423C578.33 78.4088 576.458 77.6595 575.301 77.6595C575.142 77.6595 574.983 77.6822 574.858 77.7163C574.529 77.7957 574.302 77.8979 574.291 77.966C574.121 78.2385 573.69 78.2952 573.304 78.3974C573.032 78.4769 572.283 78.6812 571.999 78.8401H571.988ZM573.78 87.9558H573.678C573.599 88.7504 573.156 89.9651 572.884 90.3965L573.395 89.9991L573.724 90.3965L574.053 89.9991L574.529 90.3965C574.268 89.931 573.848 88.7391 573.769 87.9558H573.78ZM582.766 91.8041C582.88 91.6452 583.004 91.4181 583.004 91.4181C582.505 90.6576 582.131 89.8289 582.199 88.8639C582.278 87.8196 582.857 87.5131 583.311 87.5244C583.719 87.5358 584.003 87.8536 584.026 88.3077C584.377 88.0126 584.525 87.672 584.548 87.3201C584.57 87.0476 584.434 86.6276 583.98 86.5141C584.809 85.7421 584.718 84.2096 583.878 83.6307C584.003 84.7318 583.175 85.4924 582.437 86.2076C581.45 87.1612 581.314 88.2509 581.496 89.3861C580.906 88.2509 580.633 87.1839 580.713 86.1168C580.792 84.9362 581.393 83.7101 582.256 83.7669C582.539 83.7896 582.823 83.9258 582.936 84.1756C583.356 83.4831 583.061 82.7112 582.392 82.6544C583.073 81.0197 581.972 79.385 581.053 79.0218C581.291 79.5099 581.405 80.0094 581.359 80.577C581.246 82.1549 579.873 83.4036 579.737 85.7421C579.589 88.2736 580.996 90.4646 582.505 92.1447C582.505 92.1447 582.63 91.9858 582.766 91.7928V91.8041ZM576.832 91.4409H576.73C576.651 92.2355 576.208 93.4502 575.936 93.8815L576.447 93.4842L576.776 93.8815L577.116 93.4842L577.593 93.8815C577.332 93.4161 576.912 92.2241 576.832 91.4409ZM574.495 81.2013C574.575 81.0424 574.62 80.8267 574.62 80.7132C574.62 80.6224 574.62 80.4975 574.518 80.4067C574.427 80.3159 574.177 80.2591 573.928 80.2591C573.678 80.2591 573.406 80.3045 573.258 80.3954C573.236 80.4635 573.213 80.5543 573.168 80.6451C573.633 80.6451 574.132 80.7586 574.495 81.2013ZM512.207 98.797C519.638 98.797 525.674 92.7463 525.686 85.254C525.697 77.7617 519.684 71.677 512.252 71.6657C504.821 71.6657 498.773 77.7163 498.762 85.2086C498.751 92.7009 504.764 98.7856 512.207 98.797ZM520.932 79.6348C520.966 80.0434 520.761 80.7359 520.603 80.9175C520.455 80.963 520.081 80.997 519.797 81.0197C519.616 81.0197 519.57 81.0538 519.457 81.2354C519.128 81.803 518.821 82.3365 518.47 83.0177C518.39 83.8123 518.39 84.5842 518.333 85.5265C518.311 85.8557 518.356 86.2984 518.129 86.6844C517.834 87.059 517.517 87.3314 517.256 87.5131C517.21 87.5471 517.131 87.6379 517.358 87.5698C517.483 87.5358 518.107 87.2179 518.243 87.1725C518.685 87.0249 519.196 86.4914 519.888 87.1725C520.228 87.5017 520.739 87.8082 521.351 88.2282C521.578 88.3758 521.703 88.3531 521.998 88.6142C522.248 88.8299 522.361 89.3067 522.497 89.5451C522.872 90.1808 522.917 90.5781 522.906 90.7257C522.668 90.8619 521.783 90.8619 521.431 90.7597C521.317 90.5327 521.317 90.2035 521.249 90.0332C521.125 89.7153 521.011 89.5678 520.852 89.4543C520.58 89.2613 520.387 89.0456 520.103 88.8867C519.434 88.512 519.343 88.4099 518.844 88.6596C518.39 88.8867 517.675 89.5224 516.927 89.9197C516.348 90.2035 514.725 89.9197 514.283 89.511C514.43 89.9537 515.338 90.4419 516.008 90.7597C515.917 90.9981 515.667 92.2355 515.179 92.962C515.145 92.7917 515.043 92.6555 514.884 92.6555C514.43 92.6555 514.521 93.6318 514.079 94.1199C514.056 93.961 513.954 93.8021 513.761 93.8021C513.341 93.8021 513.387 94.7102 512.91 95.1984C512.853 94.994 512.751 94.8578 512.547 94.8578C512.343 94.8578 512.184 95.0394 512.014 95.2211C511.435 95.8341 511.163 96.1973 510.618 96.7763C508.78 96.6628 506.046 95.3914 505.082 94.2221C506.829 92.349 508.395 90.4759 509.166 89.931C509.54 88.8185 510.641 86.4914 511.049 85.4129C510.993 85.3108 510.947 85.2086 510.891 85.1064C510.618 85.2654 510.289 85.2994 510.153 85.22C510.267 84.9135 510.278 84.4367 510.153 84.0734C509.96 84.1869 509.677 84.255 509.484 84.1642C509.609 83.801 509.631 83.3809 509.506 83.0404C509.257 83.1539 509.019 83.1879 508.837 83.1198C508.939 82.7112 509.041 82.3252 508.916 81.8144C508.916 81.7803 508.894 81.7462 508.882 81.7008C508.542 81.8711 507.373 82.0755 507.112 81.9733C506.942 81.8371 507.952 80.8154 508.792 79.964C507.997 80.3159 506.954 80.6905 505.365 81.0084C504.458 81.19 502.551 81.5306 501.213 81.2808C500.986 81.2468 501.042 80.9403 501.258 80.9403C501.961 80.9403 502.926 80.9062 503.618 80.7246C503.811 80.6792 504.106 80.5202 503.561 80.4181C502.983 80.3159 501.939 80.1456 501.406 79.9753C501.224 79.9072 501.326 79.6915 501.485 79.7029C502.132 79.7483 502.892 79.8845 503.448 79.9072C503.765 79.9072 503.913 79.8732 503.663 79.6688C503.516 79.544 503.062 79.2602 502.608 78.9877C502.506 78.9309 502.517 78.7834 502.642 78.7607C503.005 78.7039 504.435 79.6007 505.399 79.8618C505.615 79.9186 505.796 79.964 505.978 79.9299C506.171 79.8959 506.205 79.7823 506.193 79.7029C506.148 79.4758 505.206 79.0331 504.753 78.7153C504.56 78.5904 504.753 78.4428 504.957 78.5109C505.467 78.6585 506.636 79.2715 507.169 79.3396C507.589 79.385 507.748 79.2715 507.725 79.158C507.68 78.8742 506.057 78.1136 505.672 77.8298C505.581 77.7617 505.706 77.6255 505.819 77.6482C506.647 77.7503 508.258 78.8628 508.973 78.738C509.053 78.7266 509.155 78.6698 509.132 78.5677C509.075 78.2498 507.725 77.546 507.396 77.319C507.226 77.2054 507.419 77.0919 507.657 77.1487C508.145 77.2622 508.916 77.6482 509.37 77.8752C509.586 77.9887 509.767 78.0341 509.994 77.9887C510.289 77.932 510.539 77.6255 510.425 76.9897C510.301 76.3313 509.699 76.0816 509.28 75.9681C508.814 75.8432 509.155 75.6162 509.563 75.6956C510.335 75.8432 510.902 76.2065 511.038 76.8876C511.061 77.0011 511.061 77.1487 511.072 77.3076C511.084 77.6822 511.356 77.546 511.583 77.2281C512.014 76.6265 512.093 76.0362 512.025 75.6275C511.9 74.9237 510.913 74.6399 510.913 74.481C510.913 74.4242 510.97 74.3788 511.027 74.3674C511.413 74.2993 512.456 74.7534 512.604 75.5934C512.683 76.0362 512.604 76.2746 512.524 76.7059C512.502 76.7968 512.57 76.8762 512.706 76.7286C513.205 76.2292 513.614 75.3324 513.466 74.515C513.307 73.6523 512.422 73.3458 512.4 73.1982C512.4 73.1641 512.468 73.1074 512.536 73.096C512.899 73.0279 513.886 73.6182 514.067 74.5718C514.238 75.4232 513.829 77.1827 511.197 78.5904C512.297 78.3406 512.615 78.3747 512.729 78.5109C513.999 78.1704 514.816 77.9093 515.145 77.9887C515.497 78.5336 514.748 78.7607 514.737 79.1693C514.748 79.5667 515.633 78.9082 515.474 79.5326C515.202 80.0207 514.862 80.0548 514.476 80.2137C514.272 80.35 513.489 80.9062 513.058 81.2581C514.328 82.1436 515.633 83.4945 515.713 83.5512C515.792 83.7442 516.098 84.3118 516.461 85.1405C516.461 85.1518 516.484 85.1745 516.495 85.1859C516.677 84.641 516.961 83.7328 517.097 83.2788C517.21 82.8814 517.165 82.7452 517.301 82.5182C517.403 82.3138 517.766 81.9846 518.084 81.5192C518.367 81.0992 518.833 80.4408 518.98 80.2024C519.252 79.7937 519.513 79.8732 520.001 79.7369C520.183 79.6915 520.75 79.6575 520.966 79.6688L520.932 79.6348ZM510.936 79.6915C511.004 79.6348 511.095 79.5326 511.197 79.4872C511.401 79.3737 511.685 79.3056 511.878 79.2829C511.968 79.4191 511.934 79.6575 511.776 79.8278C511.617 80.0207 511.424 79.9299 511.265 79.8505C511.14 79.7937 511.049 79.8051 511.004 79.7937C510.947 79.7937 510.902 79.7369 510.947 79.6915H510.936ZM556.467 114.633C556.58 114.531 556.875 114.168 556.762 114.088C556.557 113.986 556.172 114.395 555.57 114.395C554.969 114.395 554.334 114.02 554.129 113.248C553.891 112.351 554.3 111.693 554.969 111.125C555.196 110.932 555.707 110.637 555.865 110.353C555.82 109.877 556.353 109.059 556.365 108.639C556.365 108.151 556.864 107.935 557.295 107.277C557.533 106.914 557.703 106.562 557.522 106.357C556.977 106.789 555.457 107.992 554.538 107.64C554.107 107.481 554.084 107.47 553.71 107.742C553.426 107.958 553.018 108.06 552.518 107.981C551.713 107.856 551.168 107.322 551.18 106.936C550.68 106.891 550.147 107.845 549.875 108.208C549.512 108.696 549.115 109.059 548.627 109.434C548.241 109.74 547.617 110.41 547.129 110.069C546.789 109.831 546.755 109.036 546.777 108.582C546.811 107.833 546.891 107.277 546.993 106.8C547.084 106.369 547.209 105.858 547.322 105.449C547.469 104.961 547.753 104.416 547.923 103.939C548.003 103.724 548.57 102.725 548.57 102.35C548.57 102.248 548.502 102.191 548.4 102.191C548.162 102.191 547.798 102.441 547.469 102.634C547.197 102.793 546.936 102.906 546.562 102.906C546.142 102.906 545.802 102.736 545.529 102.237C545.064 101.408 545.064 99.637 544.849 99.0921C544.395 99.3305 544.032 99.2056 543.737 98.797C543.396 98.3202 543.192 97.7412 542.977 97.1736C542.897 96.9466 542.727 96.3109 542.636 95.9476C542.375 96.4925 542.341 97.0601 542.171 97.5482C542.08 97.832 542.012 98.2067 541.944 98.5245C541.853 98.8991 541.536 99.5348 541.173 99.5348C540.968 99.5348 540.832 99.3191 540.798 99.1943C540.673 99.1943 540.571 99.3305 540.48 99.5689C540.333 99.9776 540.333 100.307 540.231 100.704C540.049 101.476 539.936 102.52 538.983 102.657C538.574 102.713 538.075 102.407 537.735 102.248C536.918 101.862 537.247 102.974 537.474 103.406C537.701 103.837 538.041 104.359 538.132 104.972C538.268 105.983 538.45 106.46 538.676 107.436C538.813 108.037 539.04 108.855 539.051 109.479C539.051 110.228 538.506 110.671 537.61 109.899C537.349 109.672 536.782 108.968 536.283 108.821C535.613 108.628 534.921 107.913 534.66 107.538C534.501 107.538 534.184 107.788 534.059 107.901C533.31 108.594 532.482 108.787 531.188 108.548C530.53 108.435 530.292 108.265 529.691 107.969C529.214 107.731 528.738 107.504 528.42 107.027C528.34 106.902 528.272 106.653 528.08 106.687C527.875 106.721 527.853 107.141 527.853 107.277C527.853 107.765 528.023 108.265 528.25 108.685C528.511 109.161 528.953 109.343 529.305 109.718C529.611 110.058 529.464 110.512 528.953 110.308C528.964 110.682 529.384 110.751 529.645 110.944C529.929 111.159 530.065 111.443 530.213 111.75C530.405 112.124 530.95 112.453 530.961 112.953C530.961 113.316 530.859 113.555 530.542 113.725C530.156 113.929 529.736 113.884 529.305 113.657C529.078 114.361 529.883 114.86 530.428 115.132C530.712 115.28 531.052 115.382 531.313 115.575C531.597 115.78 531.96 116.075 531.903 116.29C532.311 116.449 532.765 116.29 533.435 116.381C533.843 116.438 534.433 116.744 534.751 117.006C535.091 117.278 535.284 117.641 535.284 118.073C535.284 119.639 532.595 120.093 532.595 120.093C533.707 120.513 535.137 121.263 536.362 120.956C536.6 120.899 536.975 120.684 537.247 120.82C537.485 120.945 537.667 121.297 537.485 121.626C537.701 121.842 538.109 121.91 538.484 121.91C538.779 121.91 539.119 121.864 539.391 121.751C539.72 121.603 539.834 121.365 540.106 121.183C540.378 121.013 540.662 121.081 540.957 120.956C541.411 120.763 541.638 120.241 542.194 120.207L541.989 129.436H543.748C543.725 128.505 543.691 127.563 543.669 126.632C543.623 125.031 543.578 123.442 543.521 121.842C543.498 121.319 543.476 120.797 543.521 120.275C544.02 120.434 544.247 121.036 544.678 121.297C545.178 121.603 546.414 122.318 546.959 121.796C546.879 121.592 546.55 121.001 546.959 121.058C547.084 121.081 547.345 121.263 547.469 121.331C547.753 121.49 548.037 121.535 548.366 121.501C548.797 121.456 549.217 121.433 549.739 121.524C550.079 121.58 550.283 121.603 550.68 121.524C550.987 121.456 551.225 121.297 551.497 121.194C551.985 120.99 552.53 121.092 552.915 120.684C552.518 120.684 551.77 120.4 551.611 120.286C551.146 119.98 550.782 119.571 550.567 119.06C550.351 118.549 550.192 117.914 550.896 117.766C551.293 117.687 551.202 117.766 551.452 117.482C551.69 117.221 552.121 116.813 552.484 116.688C552.915 116.54 554.209 116.608 554.368 116.063C554.311 116.007 554.209 115.87 554.22 115.78C554.243 115.643 554.334 115.598 554.504 115.518C554.742 115.405 555.06 115.291 555.309 115.212C555.684 115.098 556.206 114.894 556.535 114.61L556.467 114.633Z" fill="black"/>
</g>
<defs>
<clipPath id="clip0_10_2">
<rect width="600" height="142.808" fill="white"/>
</clipPath>
</defs>
</svg>
