<svg width="600" height="152" viewBox="0 0 600 152" fill="none" xmlns="http://www.w3.org/2000/svg">
<mask id="mask0_12_44" style="mask-type:luminance" maskUnits="userSpaceOnUse" x="0" y="0" width="600" height="152">
<path d="M600 0H0V151.807H600V0Z" fill="white"/>
</mask>
<g mask="url(#mask0_12_44)">
<path d="M412.298 51.7944C411.275 51.1753 410.107 50.6855 408.824 50.3541C407.541 50.023 406.244 49.7779 404.96 49.634C403.706 49.4468 402.553 49.2451 401.483 49.029C400.417 48.8132 399.553 48.5107 398.888 48.1507C398.27 47.7759 397.952 47.2286 397.952 46.4942C397.952 45.6874 398.4 45.0249 399.279 44.5066C400.157 43.9879 401.556 43.7288 403.475 43.7288C404.83 43.7288 406.229 43.8871 407.668 44.2185C409.139 44.5066 410.595 45.0827 412.023 45.9325L414.893 39.811C413.494 38.9613 411.748 38.3277 409.645 37.8813C407.556 37.4345 405.492 37.2188 403.46 37.2188C400.591 37.2188 398.126 37.6362 396.065 38.486C394.001 39.2927 392.418 40.4161 391.319 41.8565C390.253 43.2968 389.722 44.9385 389.722 46.8253C389.722 48.5107 390.036 49.8932 390.658 50.9591C391.32 52.025 392.187 52.8748 393.253 53.4939C394.32 54.1134 395.501 54.6032 396.785 54.9343C398.068 55.2224 399.336 55.4671 400.591 55.6543C401.874 55.8415 403.056 56.0287 404.122 56.2019C405.188 56.3747 406.041 56.6627 406.659 57.0227C407.324 57.3542 407.653 57.8725 407.653 58.5639C407.653 59.4137 407.238 60.0762 406.388 60.5515C405.579 61.0268 404.18 61.2715 402.192 61.2715C400.388 61.2715 398.545 61.0124 396.669 60.4937C394.826 59.9465 393.224 59.2409 391.869 58.4053L388.999 64.5842C390.354 65.5062 392.201 66.2696 394.522 66.9032C396.871 67.4938 399.322 67.7819 401.859 67.7819C404.845 67.7819 407.368 67.3785 409.413 66.5718C411.503 65.7654 413.104 64.6565 414.213 63.2591C415.323 61.8188 415.873 60.1915 415.873 58.3478C415.873 56.6627 415.54 55.2943 414.879 54.2718C414.213 53.2059 413.35 52.385 412.283 51.7944H412.298Z" fill="white"/>
<path d="M378.534 39.1184C376.214 37.8652 373.604 37.2461 370.691 37.2461C367.778 37.2461 364.969 37.9086 362.573 39.2337C360.18 40.5154 358.293 42.3157 356.894 44.6348C355.539 46.9104 354.849 49.5461 354.849 52.5132C354.849 55.4803 355.539 58.087 356.938 60.3916C358.337 62.6673 360.31 64.4676 362.847 65.7927C365.428 67.1178 368.399 67.7803 371.786 67.7803C374.468 67.7803 376.846 67.3769 378.906 66.5705C380.97 65.7208 382.684 64.5251 384.039 62.9843L379.456 58.0151C378.462 58.9657 377.367 59.6857 376.141 60.161C374.959 60.6363 373.59 60.8814 372.003 60.8814C370.228 60.8814 368.688 60.5644 367.362 59.9452C366.079 59.2827 365.052 58.3462 364.318 57.1364C363.943 56.4595 363.672 55.725 363.498 54.9327H385.958C386.002 54.5582 386.031 54.1838 386.074 53.7808C386.117 53.334 386.132 52.9596 386.132 52.6285C386.132 49.4308 385.452 46.6943 384.082 44.4186C382.727 42.0999 380.869 40.3426 378.505 39.1184H378.534ZM366.827 44.7356C367.965 44.0731 369.278 43.7416 370.749 43.7416C372.22 43.7416 373.503 44.0731 374.612 44.7356C375.722 45.3548 376.586 46.2479 377.208 47.3857C377.623 48.1346 377.884 48.9844 378.028 49.9205H363.44C363.585 48.9989 363.841 48.178 364.246 47.4432C364.868 46.2623 365.732 45.3692 366.841 44.7356H366.827Z" fill="white"/>
<path d="M343.229 38.6728C341.425 37.7222 339.35 37.2324 336.986 37.2324C334.145 37.2324 331.637 37.9094 329.432 39.2775C328.192 40.0553 327.151 41.0204 326.302 42.1149C325.612 40.9915 324.73 40.0553 323.635 39.3353C321.618 37.938 319.239 37.2469 316.514 37.2469C314.092 37.2469 311.916 37.7797 309.997 38.8456C308.916 39.4362 307.98 40.2281 307.185 41.1501V37.6933H298.969V67.3633H307.576V52.4706C307.576 50.6992 307.85 49.2588 308.396 48.121C308.945 46.9832 309.723 46.1334 310.72 45.5862C311.714 44.9956 312.838 44.7075 314.092 44.7075C315.892 44.7075 317.277 45.2836 318.231 46.4215C319.225 47.5593 319.713 49.3308 319.713 51.7217V67.3777H328.322V52.4851C328.322 50.7136 328.594 49.2733 329.143 48.1354C329.689 46.9976 330.469 46.1478 331.463 45.6006C332.457 45.01 333.582 44.722 334.836 44.722C336.639 44.722 338.038 45.2981 339.032 46.4359C340.026 47.5738 340.518 49.3452 340.518 51.7362V67.3922H349.124V50.4111C349.124 47.401 348.589 44.9381 347.522 43.0224C346.5 41.0779 345.057 39.6375 343.214 38.7158L343.229 38.6728Z" fill="white"/>
<path d="M287.423 40.4434C284.915 38.312 281.411 37.2461 276.884 37.2461C274.535 37.2461 272.213 37.5631 269.936 38.1822C267.658 38.8014 265.712 39.6945 264.083 40.8323L267.168 46.8385C268.235 45.9887 269.518 45.3262 271.031 44.8509C272.574 44.3322 274.145 44.0731 275.717 44.0731C278.038 44.0731 279.739 44.5914 280.849 45.6143C281.988 46.6368 282.564 48.0772 282.564 49.9205H275.717C272.704 49.9205 270.253 50.3094 268.379 51.0728C266.505 51.8073 265.121 52.8443 264.241 54.1552C263.39 55.4803 262.973 57.0211 262.973 58.7929C262.973 60.5644 263.419 62.0048 264.299 63.3732C265.178 64.7268 266.447 65.8216 268.105 66.628C269.763 67.4058 271.752 67.7803 274.059 67.7803C276.668 67.7803 278.802 67.2905 280.46 66.2969C281.584 65.6199 282.464 64.7124 283.112 63.6034V67.3339H291.171V50.4103C291.171 45.8879 289.917 42.5608 287.423 40.429V40.4434ZM280.085 61.0108C278.946 61.6733 277.663 62.0048 276.221 62.0048C274.708 62.0048 273.511 61.6878 272.632 61.0686C271.781 60.4061 271.363 59.5274 271.363 58.4185C271.363 57.4245 271.738 56.6037 272.473 55.9411C273.251 55.2786 274.65 54.9472 276.668 54.9472H282.579V57.9862C282.06 59.3113 281.238 60.3197 280.099 61.0252L280.085 61.0108Z" fill="white"/>
<path d="M251.078 38.672C249.233 37.7214 247.142 37.2316 244.793 37.2316C242.255 37.2316 239.992 37.7644 238.002 38.8303C237.007 39.3635 236.114 40.026 235.35 40.7894V26.127H226.743V67.3339H235.35V52.6715C235.35 50.8282 235.638 49.3303 236.229 48.1491C236.849 46.9683 237.7 46.104 238.766 45.5565C239.877 44.9662 241.102 44.6782 242.457 44.6782C244.374 44.6782 245.845 45.2543 246.868 46.3921C247.935 47.53 248.469 49.3014 248.469 51.6924V67.3484H257.075V50.3673C257.075 47.3568 256.542 44.8939 255.475 42.9786C254.408 41.0341 252.938 39.5937 251.064 38.672H251.078Z" fill="white"/>
<path d="M188.869 33.4144H201.238V67.3476H210.176V33.4144H222.531V26.1406H188.869V33.4144Z" fill="white"/>
<path d="M591.722 37.3867L583.333 57.5366L575.001 37.3867H566.121L578.981 67.3018L578.88 67.5465C578.287 68.8715 577.626 69.808 576.888 70.3553C576.198 70.9459 575.233 71.2339 574.022 71.2339C573.169 71.2339 572.305 71.0753 571.427 70.7442C570.574 70.4127 569.826 69.9519 569.161 69.3613L566.02 75.4827C566.97 76.3336 568.21 76.995 569.71 77.4685C571.224 77.9456 572.753 78.1914 574.293 78.1914C576.097 78.1914 577.741 77.9167 579.209 77.3709C580.723 76.8215 582.079 75.8572 583.289 74.5032C584.544 73.1492 585.639 71.2625 586.607 68.886L600.014 37.4012H591.736L591.722 37.3867Z" fill="white"/>
<path d="M557.715 38.8137C555.394 37.5606 552.785 36.9414 549.875 36.9414C546.962 36.9414 544.15 37.604 541.757 38.929C539.364 40.2107 537.477 42.0111 536.079 44.3301C534.723 46.6058 534.029 49.2414 534.029 52.2085C534.029 55.1756 534.723 57.7824 536.122 60.087C537.521 62.3626 539.494 64.163 542.032 65.488C544.612 66.8131 547.584 67.4756 550.97 67.4756C553.652 67.4756 556.03 67.0722 558.091 66.2659C560.155 65.4161 561.868 64.2205 563.223 62.6796L558.64 57.7104C557.646 58.661 556.547 59.381 555.322 59.8563C554.14 60.3316 552.77 60.5767 551.187 60.5767C549.412 60.5767 547.869 60.2597 546.543 59.6406C545.259 58.978 544.237 58.0419 543.503 56.8318C543.127 56.1548 542.852 55.4203 542.679 54.628H565.143C565.186 54.2536 565.215 53.8791 565.258 53.4761C565.298 53.0294 565.312 52.6549 565.312 52.3238C565.312 49.1261 564.637 46.3896 563.267 44.1139C561.911 41.7953 560.053 40.0379 557.69 38.8137H557.715ZM546.011 44.4309C547.15 43.7684 548.462 43.437 549.933 43.437C551.404 43.437 552.683 43.7684 553.797 44.4309C554.906 45.0501 555.77 45.9432 556.392 47.081C556.808 47.83 557.068 48.6797 557.212 49.6159H542.621C542.765 48.6942 543.026 47.8733 543.43 47.1385C544.049 45.9577 544.916 45.0645 546.026 44.4309H546.011Z" fill="white"/>
<path d="M528.265 26.1406H519.659V67.0595H528.265V26.1406Z" fill="white"/>
<path d="M511.655 26.1406H503.049V67.0595H511.655V26.1406Z" fill="white"/>
<path d="M491.501 40.1387C488.992 38.0073 485.49 36.9414 480.961 36.9414C478.612 36.9414 476.291 37.2584 474.014 37.8776C471.737 38.4971 469.789 39.3898 468.162 40.5277L471.246 46.5338C472.312 45.6841 473.595 45.0215 475.109 44.5462C476.653 44.0276 478.225 43.7684 479.794 43.7684C482.118 43.7684 483.817 44.2867 484.926 45.3096C486.065 46.3321 486.643 47.7725 486.643 49.6159H479.794C476.783 49.6159 474.332 50.0048 472.456 50.7682C470.584 51.5026 469.2 52.54 468.321 53.8506C467.468 55.1756 467.053 56.7165 467.053 58.4883C467.053 60.2597 467.497 61.7001 468.376 63.0685C469.258 64.4221 470.526 65.5169 472.182 66.3233C473.841 67.1012 475.832 67.4756 478.138 67.4756C480.748 67.4756 482.88 66.9859 484.539 65.9922C485.664 65.3153 486.542 64.4077 487.192 63.2987V67.0292H495.249V50.1056C495.249 45.5832 493.995 42.2561 491.501 40.1243V40.1387ZM484.164 60.7061C483.025 61.3686 481.742 61.7001 480.3 61.7001C478.785 61.7001 477.589 61.3831 476.711 60.764C475.861 60.1014 475.442 59.2227 475.442 58.1138C475.442 57.1199 475.818 56.299 476.551 55.6365C477.329 54.9739 478.727 54.6425 480.748 54.6425H486.658V57.6815C486.137 59.0066 485.317 60.015 484.178 60.7206L484.164 60.7061Z" fill="white"/>
<path d="M460.564 26.1406L447.762 56.0268L435.017 26.1406H425.359L443.034 67.0451H451.857L469.488 26.1406H460.564Z" fill="white"/>
<path d="M141.512 113.925C144.871 108.193 147.552 101.929 149.354 95.2021C152.122 84.8756 152.612 74.4751 151.142 64.5371L72.1973 93.919L141.497 113.925H141.512Z" fill="white"/>
<path d="M4.07993 55.1045C12.3693 80.9005 45.1525 86.4596 45.1525 86.4596L46.0029 86.6909L146.284 47.2116C137.577 26.0396 119.412 8.98616 95.5091 2.60592C56.037 -7.93709 15.4976 14.4451 3.27246 52.8722C3.56089 53.5492 3.82041 54.2692 4.07993 55.0901V55.1045Z" fill="white"/>
<path d="M46.594 105.574C18.8711 98.1569 5.85325 88.8822 0 83.0195C2.91217 113.667 24.5082 140.76 56.109 149.2C83.212 156.444 110.805 148.134 129.417 129.812L46.6084 105.588L46.594 105.574Z" fill="white"/>
<path d="M590.874 93.502V104.663C590.198 103.771 589.388 103.051 588.437 102.516C587.068 101.754 585.524 101.378 583.825 101.378C581.863 101.378 580.121 101.812 578.563 102.675C577.034 103.539 575.837 104.75 574.945 106.29C574.052 107.819 573.618 109.604 573.618 111.65C573.618 113.692 574.066 115.507 574.945 117.05C575.837 118.59 577.034 119.801 578.563 120.665C580.106 121.528 581.863 121.962 583.825 121.962C585.582 121.962 587.14 121.586 588.51 120.824C589.504 120.245 590.342 119.483 591.018 118.532V121.745H594.521V93.5164H590.859L590.874 93.502ZM589.995 115.424C589.402 116.486 588.596 117.31 587.559 117.9C586.551 118.489 585.398 118.778 584.129 118.778C582.86 118.778 581.678 118.489 580.666 117.9C579.658 117.31 578.837 116.486 578.23 115.424C577.627 114.328 577.323 113.074 577.323 111.65C577.323 110.222 577.627 108.954 578.23 107.916C578.837 106.854 579.658 106.03 580.666 105.44C581.678 104.851 582.846 104.562 584.129 104.562C585.412 104.562 586.536 104.851 587.559 105.44C588.596 106.03 589.417 106.854 589.995 107.916C590.599 108.954 590.902 110.208 590.902 111.65C590.902 113.089 590.599 114.328 589.995 115.424Z" fill="white"/>
<path d="M563.814 104.982V101.555H560.312V121.717H563.973V111.679C563.973 109.474 564.548 107.79 565.686 106.623C566.825 105.459 568.383 104.866 570.331 104.866H570.703C570.862 104.866 571.007 104.866 571.166 104.909V101.367C569.232 101.367 567.605 101.743 566.293 102.477C565.198 103.08 564.389 103.93 563.814 104.982Z" fill="white"/>
<path d="M544.902 101.381C543.3 101.381 541.757 101.612 540.286 102.075C538.847 102.505 537.593 103.137 536.552 103.976L538.081 106.712C538.876 106.047 539.841 105.53 540.98 105.154C542.119 104.753 543.286 104.551 544.482 104.551C546.286 104.551 547.627 104.984 548.52 105.848C549.427 106.683 549.89 107.876 549.89 109.419V110.139H544.092C542.09 110.139 540.488 110.399 539.292 110.93C538.124 111.465 537.275 112.17 536.74 113.063C536.238 113.956 535.978 114.935 535.978 116.03C535.978 117.125 536.281 118.206 536.885 119.113C537.492 120.006 538.356 120.697 539.48 121.199C540.618 121.705 541.945 121.965 543.445 121.965C545.303 121.965 546.832 121.618 548.057 120.942C548.925 120.436 549.586 119.818 550.078 119.07V121.734H553.537V109.564C553.537 106.799 552.788 104.739 551.288 103.398C549.788 102.06 547.656 101.381 544.887 101.381H544.902ZM547.641 118.235C546.629 118.839 545.433 119.142 544.063 119.142C542.697 119.142 541.569 118.853 540.792 118.264C540 117.657 539.61 116.851 539.61 115.871C539.61 115.007 539.928 114.274 540.561 113.666C541.197 113.063 542.422 112.759 544.251 112.759H549.89V115.568C549.427 116.735 548.679 117.628 547.641 118.235Z" fill="white"/>
<path d="M527.571 102.707C526.003 101.815 524.213 101.381 522.211 101.381C520.205 101.381 518.376 101.829 516.804 102.707C515.231 103.571 513.992 104.782 513.07 106.322C512.163 107.862 511.7 109.651 511.7 111.65C511.7 113.652 512.163 115.412 513.07 116.981C513.977 118.521 515.231 119.746 516.804 120.639C518.376 121.531 520.176 121.965 522.211 121.965C524.242 121.965 526.003 121.517 527.571 120.639C529.172 119.746 530.412 118.535 531.309 116.981C532.216 115.441 532.675 113.652 532.675 111.65C532.675 109.651 532.216 107.851 531.309 106.322C530.412 104.782 529.172 103.571 527.571 102.707ZM528.106 115.412C527.517 116.475 526.707 117.299 525.67 117.888C524.662 118.477 523.494 118.766 522.211 118.766C520.928 118.766 519.76 118.477 518.748 117.888C517.74 117.299 516.919 116.475 516.312 115.412C515.709 114.317 515.405 113.063 515.405 111.639C515.405 110.211 515.709 108.942 516.312 107.905C516.919 106.842 517.74 106.018 518.748 105.429C519.76 104.84 520.928 104.551 522.211 104.551C523.494 104.551 524.662 104.84 525.67 105.429C526.707 106.018 527.531 106.842 528.106 107.905C528.699 108.942 528.985 110.197 528.985 111.639C528.985 113.077 528.699 114.317 528.106 115.412Z" fill="white"/>
<path d="M504.389 108.378C503.985 108.19 503.54 108.089 503.092 107.959C503.135 107.944 503.178 107.93 503.207 107.915C504.303 107.384 505.166 106.618 505.803 105.627C506.464 104.633 506.797 103.423 506.797 101.966C506.797 99.837 505.976 98.1635 504.317 96.9418C502.672 95.7021 500.309 95.084 497.24 95.084H485.272V121.715H497.988C501.36 121.715 503.898 121.094 505.6 119.857C507.331 118.589 508.195 116.818 508.195 114.526C508.195 113.001 507.848 111.732 507.172 110.724C506.478 109.686 505.557 108.895 504.389 108.364V108.378ZM496.893 98.178C498.823 98.178 500.323 98.5394 501.389 99.2442C502.456 99.949 502.991 101.015 502.991 102.443C502.991 103.867 502.456 104.933 501.389 105.638C500.323 106.347 498.823 106.704 496.893 106.704H489.078V98.178H496.893ZM502.687 117.58C501.577 118.285 499.962 118.647 497.844 118.647H489.078V109.773H497.844C499.947 109.773 501.563 110.135 502.687 110.839C503.797 111.544 504.36 112.683 504.36 114.223C504.36 115.766 503.797 116.861 502.687 117.566V117.58Z" fill="white"/>
<path d="M467.54 93.502H463.879V121.731H467.54V93.502Z" fill="white"/>
<path d="M453.715 102.707C452.143 101.815 450.357 101.381 448.351 101.381C446.349 101.381 444.516 101.829 442.947 102.707C441.375 103.571 440.135 104.782 439.214 106.322C438.303 107.862 437.844 109.651 437.844 111.65C437.844 113.652 438.303 115.412 439.214 116.981C440.121 118.521 441.375 119.746 442.947 120.639C444.516 121.531 446.32 121.965 448.351 121.965C450.386 121.965 452.143 121.517 453.715 120.639C455.316 119.746 456.556 118.535 457.449 116.981C458.356 115.441 458.818 113.652 458.818 111.65C458.818 109.651 458.356 107.851 457.449 106.322C456.556 104.782 455.316 103.571 453.715 102.707ZM454.25 115.412C453.657 116.475 452.851 117.299 451.814 117.888C450.802 118.477 449.634 118.766 448.351 118.766C447.068 118.766 445.9 118.477 444.892 117.888C443.884 117.299 443.063 116.475 442.456 115.412C441.852 114.317 441.549 113.063 441.549 111.639C441.549 110.211 441.852 108.942 442.456 107.905C443.063 106.842 443.884 106.018 444.892 105.429C445.9 104.84 447.068 104.551 448.351 104.551C449.634 104.551 450.802 104.84 451.814 105.429C452.851 106.018 453.671 106.842 454.25 107.905C454.839 108.942 455.128 110.197 455.128 111.639C455.128 113.077 454.839 114.317 454.25 115.412Z" fill="white"/>
<path d="M429.539 102.707C427.97 101.815 426.181 101.381 424.179 101.381C422.173 101.381 420.344 101.829 418.772 102.707C417.199 103.571 415.96 104.782 415.038 106.322C414.131 107.862 413.668 109.651 413.668 111.65C413.668 113.652 414.131 115.412 415.038 116.981C415.945 118.521 417.199 119.746 418.772 120.639C420.344 121.531 422.144 121.965 424.179 121.965C426.21 121.965 427.97 121.517 429.539 120.639C431.14 119.746 432.38 118.535 433.273 116.981C434.184 115.441 434.643 113.652 434.643 111.65C434.643 109.651 434.184 107.851 433.273 106.322C432.38 104.782 431.14 103.571 429.539 102.707ZM430.074 115.412C429.481 116.475 428.675 117.299 427.638 117.888C426.629 118.477 425.462 118.766 424.179 118.766C422.896 118.766 421.728 118.477 420.716 117.888C419.708 117.299 418.887 116.475 418.28 115.412C417.676 114.317 417.373 113.063 417.373 111.639C417.373 110.211 417.676 108.942 418.28 107.905C418.887 106.842 419.708 106.018 420.716 105.429C421.728 104.84 422.896 104.551 424.179 104.551C425.462 104.551 426.629 104.84 427.638 105.429C428.675 106.018 429.496 106.842 430.074 107.905C430.667 108.942 430.952 110.197 430.952 111.639C430.952 113.077 430.667 114.317 430.074 115.412Z" fill="white"/>
<path d="M404.715 102.33C403.475 101.697 402.018 101.379 400.374 101.379C398.545 101.379 396.944 101.755 395.574 102.489C394.623 102.995 393.857 103.656 393.253 104.448V93.5176H389.592V121.746H393.253V111.362C393.253 109.891 393.513 108.655 394.016 107.675C394.551 106.681 395.299 105.93 396.268 105.427C397.233 104.925 398.357 104.665 399.654 104.665C401.386 104.665 402.709 105.153 403.648 106.146C404.613 107.14 405.091 108.612 405.091 110.556V121.746H408.752V110.137C408.752 108.163 408.391 106.522 407.686 105.225C406.977 103.931 405.983 102.966 404.715 102.33Z" fill="white"/>
<path d="M373.317 105.444C374.354 104.852 375.536 104.566 376.863 104.566C377.958 104.566 378.966 104.808 379.906 105.285C380.871 105.744 381.677 106.467 382.342 107.461L385.122 105.672C384.33 104.248 383.221 103.182 381.779 102.477C380.351 101.743 378.739 101.367 376.906 101.367C374.846 101.367 373.013 101.812 371.383 102.694C369.786 103.558 368.532 104.765 367.606 106.308C366.699 107.848 366.236 109.633 366.236 111.636C366.236 113.638 366.699 115.409 367.606 116.964C368.517 118.507 369.786 119.732 371.383 120.625C373.013 121.518 374.846 121.948 376.906 121.948C378.739 121.948 380.365 121.576 381.779 120.838C383.221 120.076 384.345 118.995 385.122 117.6L382.342 115.843C381.677 116.837 380.871 117.571 379.906 118.044C378.966 118.507 377.944 118.738 376.863 118.738C375.536 118.738 374.369 118.449 373.317 117.86C372.28 117.267 371.456 116.447 370.838 115.38C370.23 114.314 369.93 113.064 369.93 111.607C369.93 110.154 370.23 108.914 370.838 107.877C371.441 106.811 372.28 105.99 373.317 105.401V105.444Z" fill="white"/>
<path d="M359.88 108.909C358.94 108.378 357.888 107.944 356.721 107.615C355.582 107.283 354.429 106.994 353.291 106.733C352.152 106.462 351.1 106.144 350.132 105.826C349.195 105.497 348.418 105.049 347.811 104.503C347.222 103.94 346.933 103.191 346.933 102.255C346.933 101.464 347.15 100.759 347.58 100.123C348.042 99.4901 348.747 98.9877 349.716 98.5973C350.681 98.207 351.906 98.0227 353.406 98.0227C354.603 98.0227 355.828 98.1925 357.097 98.554C358.365 98.8865 359.576 99.4323 360.715 100.195L361.969 97.1588C360.859 96.3925 359.533 95.8178 358.004 95.3985C356.475 94.9973 354.95 94.7949 353.392 94.7949C351.057 94.7949 349.123 95.1564 347.594 95.8612C346.098 96.5516 344.985 97.4732 344.251 98.6407C343.546 99.7793 343.185 101.03 343.185 102.414C343.185 103.799 343.474 105.006 344.063 105.913C344.656 106.806 345.404 107.514 346.354 108.046C347.323 108.577 348.375 109.025 349.513 109.372C350.681 109.701 351.834 109.99 352.973 110.25C354.111 110.507 355.148 110.811 356.103 111.158C357.068 111.486 357.845 111.935 358.423 112.48C359.027 113.044 359.33 113.778 359.33 114.685C359.33 115.477 359.099 116.182 358.64 116.818C358.177 117.421 357.473 117.913 356.504 118.256C355.539 118.618 354.285 118.791 352.727 118.791C351.028 118.791 349.383 118.502 347.811 117.913C346.239 117.32 344.941 116.587 343.933 115.708L342.52 118.676C343.589 119.67 345.042 120.476 346.904 121.108C348.762 121.715 350.695 122.015 352.727 122.015C355.062 122.015 356.995 121.672 358.524 120.993C360.064 120.288 361.221 119.352 361.954 118.213C362.688 117.049 363.064 115.795 363.064 114.44C363.064 113.088 362.775 111.906 362.186 111.013C361.593 110.12 360.83 109.415 359.865 108.88L359.88 108.909Z" fill="white"/>
<path d="M325.799 118.879C324.787 118.879 323.996 118.594 323.436 118.001C322.901 117.412 322.64 116.577 322.64 115.496V104.581H328.438V101.57H322.64V97.1602H318.979V101.57H315.549V104.581H318.979V115.655C318.979 117.687 319.543 119.241 320.652 120.336C321.762 121.431 323.349 121.977 325.38 121.977C326.215 121.977 327.025 121.861 327.773 121.634C328.564 121.402 329.23 121.041 329.79 120.567L328.651 117.943C327.889 118.579 326.938 118.894 325.799 118.894V118.879Z" fill="white"/>
<path d="M301.651 105.444C302.688 104.852 303.87 104.566 305.197 104.566C306.292 104.566 307.3 104.808 308.236 105.285C309.205 105.744 310.011 106.467 310.676 107.461L313.456 105.672C312.664 104.248 311.555 103.182 310.112 102.477C308.685 101.743 307.069 101.367 305.24 101.367C303.176 101.367 301.347 101.812 299.718 102.694C298.118 103.558 296.864 104.765 295.941 106.308C295.032 107.848 294.571 109.633 294.571 111.636C294.571 113.638 295.032 115.409 295.941 116.964C296.849 118.507 298.118 119.732 299.718 120.625C301.347 121.518 303.176 121.948 305.24 121.948C307.069 121.948 308.699 121.576 310.112 120.838C311.555 120.076 312.679 118.995 313.456 117.6L310.676 115.843C310.011 116.837 309.205 117.571 308.236 118.044C307.3 118.507 306.277 118.738 305.197 118.738C303.87 118.738 302.703 118.449 301.651 117.86C300.614 117.267 299.79 116.447 299.17 115.38C298.565 114.314 298.262 113.064 298.262 111.607C298.262 110.154 298.565 108.914 299.17 107.877C299.776 106.811 300.614 105.99 301.651 105.401V105.444Z" fill="white"/>
<path d="M287.623 92.9246C286.917 92.9246 286.311 93.1559 285.835 93.615C285.374 94.0776 285.144 94.6379 285.144 95.3318C285.144 96.0222 285.374 96.5535 285.835 97.0017C286.311 97.4607 286.917 97.6921 287.623 97.6921C288.33 97.6921 288.95 97.4607 289.411 97.0017C289.872 96.5246 290.103 95.9354 290.103 95.2451C290.103 94.5511 289.858 94.0343 289.382 93.6005C288.921 93.1415 288.344 92.9102 287.623 92.9102V92.9246Z" fill="white"/>
<path d="M289.454 101.564H285.792V121.73H289.454V101.564Z" fill="white"/>
<path d="M273.942 104.982V101.555H270.438V121.717H274.1V111.679C274.1 109.474 274.677 107.79 275.816 106.623C276.955 105.459 278.512 104.866 280.458 104.866H280.833C280.992 104.866 281.135 104.866 281.294 104.909V101.367C279.363 101.367 277.733 101.743 276.421 102.477C275.326 103.08 274.518 103.93 273.942 104.982Z" fill="white"/>
<path d="M262.02 118.879C261.011 118.879 260.218 118.594 259.656 118.001C259.122 117.412 258.863 116.577 258.863 115.496V104.581H264.658V101.57H258.863V97.1602H255.201V101.57H251.77V104.581H255.201V115.655C255.201 117.687 255.763 119.241 256.873 120.336C257.983 121.431 259.569 121.977 261.602 121.977C262.438 121.977 263.245 121.861 263.995 121.634C264.788 121.402 265.451 121.041 266.013 120.567L264.874 117.943C264.11 118.579 263.159 118.894 262.02 118.894V118.879Z" fill="white"/>
<path d="M247.544 111.649C246.809 111.276 245.987 110.973 245.065 110.77C244.156 110.543 243.233 110.369 242.325 110.239C241.417 110.08 240.566 109.907 239.817 109.704C239.082 109.505 238.476 109.231 237.986 108.869C237.524 108.497 237.294 107.962 237.294 107.272C237.294 106.466 237.683 105.804 238.476 105.298C239.269 104.767 240.451 104.507 242.051 104.507C243.046 104.507 244.026 104.622 245.021 104.854C246.016 105.081 246.968 105.501 247.875 106.104L249.433 103.209C248.568 102.62 247.458 102.186 246.088 101.886C244.747 101.554 243.407 101.395 242.095 101.395C240.365 101.395 238.865 101.655 237.597 102.157C236.357 102.634 235.391 103.339 234.699 104.246C234.007 105.154 233.675 106.22 233.675 107.445C233.675 108.67 233.906 109.549 234.368 110.254C234.829 110.944 235.434 111.479 236.198 111.895C236.962 112.27 237.798 112.585 238.707 112.802C239.615 113.004 240.538 113.178 241.446 113.337C242.354 113.467 243.19 113.608 243.926 113.796C244.69 113.969 245.295 114.244 245.756 114.587C246.218 114.949 246.448 115.437 246.448 116.073C246.448 116.937 246.074 117.613 245.31 118.09C244.574 118.563 243.349 118.809 241.648 118.809C240.321 118.809 239.038 118.607 237.769 118.205C236.501 117.801 235.434 117.295 234.569 116.72L233.041 119.615C233.906 120.276 235.088 120.84 236.588 121.285C238.116 121.748 239.716 121.979 241.388 121.979C243.19 121.979 244.733 121.733 246.03 121.256C247.328 120.754 248.323 120.049 249.043 119.167C249.764 118.289 250.11 117.226 250.11 116.015C250.11 114.876 249.865 113.955 249.389 113.279C248.928 112.585 248.323 112.054 247.558 111.678L247.544 111.649Z" fill="white"/>
<path d="M226.773 92.9246C226.067 92.9246 225.462 93.1559 224.986 93.615C224.525 94.0776 224.294 94.6379 224.294 95.3318C224.294 96.0222 224.525 96.5535 224.986 97.0017C225.462 97.4607 226.067 97.6921 226.773 97.6921C227.48 97.6921 228.1 97.4607 228.561 97.0017C229.022 96.5246 229.253 95.9354 229.253 95.2451C229.253 94.5511 229.008 94.0343 228.532 93.6005C228.071 93.1415 227.495 92.9102 226.773 92.9102V92.9246Z" fill="white"/>
<path d="M228.616 101.564H224.954V121.73H228.616V101.564Z" fill="white"/>
<path d="M212.757 96.7676C210.595 95.6579 208.101 95.0977 205.261 95.0977H194.03V121.725H205.261C208.101 121.725 210.609 121.165 212.757 120.056C214.934 118.946 216.635 117.377 217.818 115.375C219.043 113.372 219.648 111.056 219.648 108.417C219.648 105.782 219.043 103.465 217.818 101.463C216.621 99.4603 214.934 97.9061 212.757 96.782V96.7676ZM214.516 113.662C213.622 115.158 212.368 116.325 210.739 117.16C209.139 117.995 207.236 118.415 205.03 118.415H197.836V98.3941H205.03C207.236 98.3941 209.139 98.8133 210.739 99.6483C212.368 100.483 213.622 101.651 214.516 103.147C215.41 104.643 215.842 106.389 215.842 108.402C215.842 110.419 215.396 112.136 214.516 113.662Z" fill="white"/>
</g>
</svg>
